<svg width="52" height="20" viewBox="0 0 52 20" fill="none" xmlns="http://www.w3.org/2000/svg">
<g clip-path="url(#clip0_3310_1468)">
<path d="M24.6389 9.7707V15.6333H22.7791V1.15521H27.7118C28.3006 1.14291 28.886 1.24734 29.4342 1.46246C29.9824 1.67759 30.4826 1.99915 30.9059 2.4086C31.3335 2.79319 31.6737 3.26485 31.9039 3.79188C32.134 4.3189 32.2487 4.88909 32.2401 5.46411C32.2524 6.04221 32.1395 6.61611 31.9092 7.1465C31.6789 7.67688 31.3366 8.1512 30.9059 8.53695C30.0433 9.35945 28.9786 9.77031 27.7118 9.76954H24.6389V9.7707ZM24.6389 2.93768V7.99169H27.758C28.0999 8.00183 28.4402 7.94048 28.7571 7.81158C29.0739 7.68269 29.3604 7.48907 29.5982 7.24312C29.8347 7.01316 30.0227 6.73811 30.1511 6.43423C30.2795 6.13035 30.3457 5.80382 30.3457 5.47393C30.3457 5.14404 30.2795 4.8175 30.1511 4.51362C30.0227 4.20975 29.8347 3.93469 29.5982 3.70474C29.3634 3.45361 29.0779 3.25525 28.7607 3.1228C28.4434 2.99036 28.1016 2.92687 27.758 2.93653H24.6389V2.93768Z" fill="white"/>
<path d="M36.5257 5.40404C37.9004 5.40404 38.9855 5.77139 39.7811 6.5061C40.5766 7.24081 40.974 8.24814 40.9732 9.52811V15.6333H39.1942V14.2587H39.1134C38.3432 15.3908 37.3189 15.9568 36.0405 15.9568C34.9492 15.9568 34.0363 15.6333 33.3015 14.9864C32.949 14.6895 32.6671 14.3177 32.4764 13.898C32.2858 13.4783 32.1911 13.0214 32.1995 12.5605C32.1995 11.5355 32.5869 10.7203 33.3616 10.1149C34.1364 9.50962 35.1707 9.20619 36.4645 9.20465C37.5689 9.20465 38.4784 9.40681 39.1931 9.81113V9.38602C39.1952 9.07182 39.1273 8.76109 38.9945 8.47637C38.8616 8.19165 38.667 7.94006 38.4249 7.73985C37.933 7.29612 37.2921 7.054 36.6297 7.06175C35.5908 7.06175 34.7686 7.49996 34.1633 8.37637L32.5252 7.34478C33.4263 6.05095 34.7598 5.40404 36.5257 5.40404ZM34.1194 12.6009C34.1182 12.8376 34.1735 13.0712 34.2808 13.2822C34.3881 13.4932 34.5443 13.6755 34.7363 13.8139C35.1476 14.1375 35.6582 14.3089 36.1815 14.2991C36.9663 14.2978 37.7186 13.9854 38.2735 13.4304C38.8896 12.8505 39.1977 12.1701 39.1977 11.3891C38.6178 10.9271 37.8091 10.696 36.7718 10.696C36.0163 10.696 35.3863 10.8782 34.8819 11.2424C34.3724 11.6121 34.1194 12.0615 34.1194 12.6009V12.6009Z" fill="white"/>
<path d="M51.1854 5.72749L44.9751 20H43.0551L45.3598 15.0061L41.2761 5.72749H43.2977L46.2493 12.8435H46.2897L49.1604 5.72749H51.1854Z" fill="white"/>
<path d="M17.1228 8.5069C17.1235 7.94011 17.0756 7.37429 16.9796 6.81569H9.13574V10.0191H13.6283C13.5364 10.5307 13.3418 11.0184 13.0563 11.4528C12.7708 11.8872 12.4003 12.2593 11.9671 12.5466V14.626H14.6484C16.2183 13.1785 17.1228 11.0379 17.1228 8.5069Z" fill="#4285F4"/>
<path d="M9.136 16.6349C11.3806 16.6349 13.2705 15.8979 14.6486 14.6272L11.9674 12.5478C11.2211 13.0538 10.26 13.3426 9.136 13.3426C6.96653 13.3426 5.12514 11.8801 4.46668 9.90932H1.70459V12.0522C2.39686 13.4298 3.45839 14.5878 4.77066 15.397C6.08292 16.2063 7.59428 16.6348 9.136 16.6349V16.6349Z" fill="#34A853"/>
<path d="M4.46684 9.90932C4.11873 8.87662 4.11873 7.75828 4.46684 6.72559V4.58269H1.70475C1.12239 5.74153 0.819092 7.02051 0.819092 8.31745C0.819092 9.6144 1.12239 10.8934 1.70475 12.0522L4.46684 9.90932Z" fill="#FBBC04"/>
<path d="M9.136 3.29232C10.3221 3.27294 11.4683 3.7211 12.3267 4.53994L14.7006 2.166C13.1953 0.75212 11.2011 -0.0241231 9.136 -3.61394e-06C7.59428 6.66514e-05 6.08292 0.428639 4.77066 1.23787C3.45839 2.04709 2.39686 3.20513 1.70459 4.58268L4.46668 6.72558C5.12514 4.7548 6.96653 3.29232 9.136 3.29232Z" fill="#EA4335"/>
</g>
<defs>
<clipPath id="clip0_3310_1468">
<rect width="50.3633" height="20" fill="white" transform="translate(0.818359)"/>
</clipPath>
</defs>
</svg>
