<svg width="67" height="18" viewBox="0 0 67 18" fill="none" xmlns="http://www.w3.org/2000/svg">
<path d="M8.02293 0H2.82268C2.46682 0 2.16418 0.261213 2.10868 0.616155L0.00545927 14.0894C-0.0363618 14.3552 0.16742 14.5949 0.434314 14.5949H2.91696C3.27282 14.5949 3.57546 14.3337 3.63096 13.978L4.19821 10.344C4.25296 9.98831 4.55635 9.7271 4.91145 9.7271H6.55767C9.9832 9.7271 11.9602 8.05227 12.4765 4.73333C12.7092 3.28129 12.4864 2.14041 11.8134 1.3414C11.0743 0.464037 9.76344 0 8.02293 0ZM8.62287 4.92079C8.33849 6.80613 6.91277 6.80613 5.5342 6.80613H4.74948L5.3 3.28513C5.3327 3.07232 5.51519 2.9156 5.7281 2.9156H6.08776C7.02683 2.9156 7.91267 2.9156 8.37042 3.45646C8.6434 3.77913 8.72704 4.25854 8.62287 4.92079Z" fill="#253B80"/>
<path d="M23.5649 4.86076H21.0747C20.8625 4.86076 20.6793 5.01749 20.6466 5.2303L20.5363 5.93404L20.3622 5.67897C19.8231 4.88842 18.6209 4.62413 17.421 4.62413C14.6692 4.62413 12.3189 6.72997 11.8611 9.68398C11.6231 11.1575 11.9615 12.5665 12.7888 13.5492C13.5476 14.4526 14.6335 14.8291 15.9254 14.8291C18.1426 14.8291 19.3722 13.3886 19.3722 13.3886L19.2612 14.0877C19.2193 14.3551 19.4231 14.5948 19.6885 14.5948H21.9316C22.2882 14.5948 22.5894 14.3336 22.6456 13.9779L23.9915 5.36628C24.0341 5.10123 23.8311 4.86076 23.5649 4.86076ZM20.0938 9.75773C19.8535 11.1952 18.7243 12.1601 17.2842 12.1601C16.561 12.1601 15.9831 11.9258 15.6121 11.4817C15.2441 11.0407 15.1041 10.4131 15.2212 9.71394C15.4456 8.28879 16.5937 7.29234 18.0119 7.29234C18.719 7.29234 19.2939 7.52974 19.6725 7.97764C20.052 8.43015 20.2025 9.06167 20.0938 9.75773Z" fill="#253B80"/>
<path d="M36.8287 4.86087H34.3263C34.0875 4.86087 33.8632 4.98072 33.7279 5.18124L30.2765 10.3179L28.8135 5.38176C28.7215 5.07291 28.4394 4.86087 28.12 4.86087H25.661C25.3621 4.86087 25.1546 5.15589 25.2496 5.44015L28.006 13.613L25.4146 17.3092C25.2108 17.6004 25.4161 18.0006 25.7682 18.0006H28.2676C28.5048 18.0006 28.7268 17.8839 28.8614 17.6872L37.1846 5.54848C37.3838 5.25807 37.1792 4.86087 36.8287 4.86087Z" fill="#253B80"/>
<path d="M45.115 0H39.914C39.5589 0 39.2562 0.261213 39.2007 0.616155L37.0975 14.0894C37.0557 14.3552 37.2595 14.5949 37.5248 14.5949H40.1938C40.4417 14.5949 40.6538 14.412 40.6926 14.1631L41.2895 10.344C41.3442 9.98831 41.6476 9.7271 42.0027 9.7271H43.6482C47.0745 9.7271 49.0507 8.05227 49.5678 4.73333C49.8012 3.28129 49.5769 2.14041 48.904 1.3414C48.1656 0.464037 46.8555 0 45.115 0ZM45.7149 4.92079C45.4313 6.80613 44.0056 6.80613 42.6262 6.80613H41.8423L42.3936 3.28513C42.4263 3.07232 42.6072 2.9156 42.8209 2.9156H43.1806C44.1189 2.9156 45.0055 2.9156 45.4632 3.45646C45.7362 3.77913 45.8191 4.25854 45.7149 4.92079Z" fill="#179BD7"/>
<path d="M60.6596 4.86076H58.1708C57.9572 4.86076 57.7754 5.01749 57.7435 5.2303L57.6333 5.93404L57.4584 5.67897C56.9193 4.88842 55.7178 4.62413 54.518 4.62413C51.7661 4.62413 49.4166 6.72997 48.9588 9.68398C48.7216 11.1575 49.0584 12.5665 49.8857 13.5492C50.6461 14.4526 51.7304 14.8291 53.0223 14.8291C55.2396 14.8291 56.4691 13.3886 56.4691 13.3886L56.3581 14.0877C56.3163 14.3551 56.5201 14.5948 56.7869 14.5948H59.0293C59.3844 14.5948 59.687 14.3336 59.7426 13.9779L61.0892 5.36628C61.1303 5.10123 60.9265 4.86076 60.6596 4.86076ZM57.1884 9.75773C56.9497 11.1952 55.819 12.1601 54.3788 12.1601C53.6572 12.1601 53.0778 11.9258 52.7067 11.4817C52.3387 11.0407 52.2003 10.4131 52.3159 9.71394C52.5417 8.28879 53.6884 7.29234 55.1065 7.29234C55.8137 7.29234 56.3885 7.52974 56.7672 7.97764C57.1481 8.43015 57.2987 9.06167 57.1884 9.75773Z" fill="#179BD7"/>
<path d="M63.5944 0.370307L61.4601 14.0901C61.4182 14.3559 61.622 14.5957 61.8874 14.5957H64.0332C64.3898 14.5957 64.6924 14.3344 64.7472 13.9787L66.8519 0.506292C66.8937 0.240469 66.6899 0 66.4246 0H64.0218C63.8096 0.000768273 63.6271 0.157496 63.5944 0.370307Z" fill="#179BD7"/>
</svg>
